# xmcd
#
# Track frame offsets: 
#        182
#        46140
#        82657
#        102147
#        134150
#        157695
#        174392
#        189807
#        205837
#        227315
#        255322
#        307240
#        327482
#
# Disc length: 4662 seconds
#
# Revision: 4
# Processed by: cddbd v1.4PL0 Copyright (c) Steve Scherf et al.
# Submitted via: ExactAudioCopy v0.90b4
#
DISCID=9812340d
DTITLE=Jimi Hendrix - 51th Anniversary ( The Story Of Life...) cd 6: w
DTITLE=oodstock session with steve stills, sept 1968
DYEAR=1993
DGENRE=Blues
TTITLE0=Two guitars jam (electric ladyland outtakes oct 68)
TTITLE1=S.Francisco Bay blues (Electric Ladyland outtakes oct 68)
TTITLE2=Gypsy eyes (unrel studio outtake)
TTITLE3=Cherokee mist (unr live studio jam, NY 68)
TTITLE4=The street things (unr studio outtake)
TTITLE5=In from the storm (unr studio outtake)
TTITLE6=Freedom (unr studio outtake)
TTITLE7=Somewhere over the rainbow 2 (unr studio outtake)
TTITLE8=Belly button window (unr instrumental studio outtake)
TTITLE9=Captain Coconut 2/Cherokee mist (unr studio outtake)
TTITLE10=Rider blues (unr studio outtake)
TTITLE11=Electric Ladyland theme (unr instrument studio outtake)
TTITLE12=Jazzy jamming (unr studio jam)
EXTD=ID3G: 0\nJmh 005,6/8\nMade in Italy by Future Disk (this appears
EXTD=to be an Italian bootleg)
EXTT0=
EXTT1=
EXTT2=
EXTT3=
EXTT4=
EXTT5=
EXTT6=
EXTT7=
EXTT8=
EXTT9=
EXTT10=
EXTT11=
EXTT12=
PLAYORDER=
